<?xml version="1.0" encoding="iso-8859-1"?>
<!-- Generator: Adobe Illustrator 19.0.0, SVG Export Plug-In . SVG Version: 6.00 Build 0)  -->
<svg version="1.1" id="Capa_1" xmlns="http://www.w3.org/2000/svg" xmlns:xlink="http://www.w3.org/1999/xlink" x="0px" y="0px"
	 viewBox="0 0 512.006 512.006" style="enable-background:new 0 0 512.006 512.006;" xml:space="preserve">
<g>
	<g>
		<path d="M415.632,412.002L48.699,45.077c-3.328-3.336-8.738-3.336-12.066,0c-3.337,3.337-3.337,8.73,0,12.066l43.196,43.187
			c-27.034,12.783-52.267,27.93-74.931,45.414l-1.485,1.135c-1.852,1.391-3.055,3.465-3.345,5.76
			c-0.29,2.295,0.367,4.608,1.818,6.409l247.467,307.2c1.621,2.005,4.07,3.183,6.647,3.183c2.586,0,5.026-1.169,6.647-3.183
			l81.698-101.41l59.221,59.23c1.664,1.664,3.849,2.5,6.033,2.5c2.185,0,4.369-0.836,6.033-2.5
			C418.969,420.732,418.969,415.339,415.632,412.002z"/>
	</g>
</g>
<g>
	<g>
		<path d="M511.939,152.64c-0.299-2.295-1.51-4.378-3.362-5.768l-1.544-1.178c-33.493-25.796-125.013-85.786-251.034-85.786
			c-40.252,0-80.666,6.221-120.107,18.475c-2.85,0.888-5.035,3.2-5.751,6.101c-0.708,2.901,0.137,5.965,2.253,8.081l232.149,232.141
			c1.604,1.604,3.772,2.5,6.033,2.5c0.154,0,0.307,0,0.461-0.008c2.415-0.128,4.668-1.28,6.187-3.166l132.898-164.975
			C511.572,157.257,512.229,154.935,511.939,152.64z"/>
	</g>
</g>
<g>
</g>
<g>
</g>
<g>
</g>
<g>
</g>
<g>
</g>
<g>
</g>
<g>
</g>
<g>
</g>
<g>
</g>
<g>
</g>
<g>
</g>
<g>
</g>
<g>
</g>
<g>
</g>
<g>
</g>
</svg>
